<svg width="125" height="33" viewBox="0 0 125 33" fill="none" xmlns="http://www.w3.org/2000/svg">
<path d="M7.68012 32.4479H0.000117302V2.06388H22.5601V8.30388H7.68012V15.2639H21.6001V21.5039H7.68012V32.4479ZM35.0364 8.83188C38.1084 8.83188 40.5884 9.15188 42.4764 9.79188C44.3644 10.4319 45.7404 11.6159 46.6044 13.3439C47.5004 15.0399 47.9484 17.5039 47.9484 20.7359V32.4479H40.9884L40.7484 30.2399H40.6044C39.9964 31.0399 39.0524 31.6799 37.7724 32.1599C36.4924 32.6399 34.8284 32.8799 32.7804 32.8799C27.2444 32.8799 24.4764 30.2879 24.4764 25.1039C24.4764 22.8959 25.1964 21.1679 26.6364 19.9199C28.1084 18.6399 30.4124 17.9999 33.5484 17.9999H40.6524C40.4284 16.6559 39.8524 15.7599 38.9244 15.3119C37.9964 14.8319 36.4124 14.5919 34.1724 14.5919C32.7644 14.5919 31.3724 14.7039 29.9964 14.9279C28.6524 15.1199 27.4684 15.3439 26.4444 15.5999L26.3004 15.5039L26.3484 9.93588C26.9884 9.74388 27.8044 9.56788 28.7964 9.40788C29.7884 9.21588 30.8284 9.07188 31.9164 8.97588C33.0364 8.87988 34.0764 8.83188 35.0364 8.83188ZM34.7484 27.2159C36.7324 27.2159 38.2204 26.9759 39.2124 26.4959C40.2044 25.9839 40.7164 25.1839 40.7484 24.0959V22.8959H35.3244C33.9164 22.8959 32.9244 23.1039 32.3484 23.5199C31.8044 23.9039 31.5324 24.4319 31.5324 25.1039C31.5324 25.9039 31.8204 26.4639 32.3964 26.7839C32.9724 27.0719 33.7564 27.2159 34.7484 27.2159ZM71.1609 25.6799V31.9199C70.3609 32.2399 69.1769 32.4799 67.6089 32.6399C66.0409 32.7999 64.3769 32.8799 62.6169 32.8799C60.0889 32.8799 57.9769 32.5279 56.2809 31.8239C54.6169 31.1199 53.3689 29.9039 52.5369 28.1759C51.7369 26.4479 51.3209 24.0479 51.2889 20.9759C51.2889 17.8079 51.7209 15.3439 52.5849 13.5839C53.4809 11.8239 54.7769 10.5919 56.4729 9.88788C58.1689 9.18388 60.2009 8.83188 62.5689 8.83188C63.9769 8.83188 65.4649 8.92788 67.0329 9.11988C68.6009 9.31188 69.8809 9.56788 70.8729 9.88788L70.9209 16.3199L70.7769 16.4159C69.8169 16.2239 68.7929 16.0799 67.7049 15.9839C66.6169 15.8879 65.5449 15.8399 64.4889 15.8399C62.3449 15.8399 60.8569 16.2399 60.0249 17.0399C59.1929 17.8399 58.7769 19.1839 58.7769 21.0719C58.7769 22.5119 58.9529 23.5839 59.3049 24.2879C59.6569 24.9919 60.2489 25.4559 61.0809 25.6799C61.9129 25.9039 63.0489 26.0159 64.4889 26.0159C65.6089 26.0159 66.6809 25.9679 67.7049 25.8719C68.7289 25.7759 69.8169 25.6639 70.9689 25.5359L71.1609 25.6799ZM82.7169 0.383881C82.8129 1.53588 82.8609 2.49588 82.8609 3.26388C82.8609 3.71188 82.8449 4.17588 82.8129 4.65588C82.8129 5.10388 82.7809 5.61588 82.7169 6.19188C82.0449 6.31988 81.3889 6.41588 80.7489 6.47988C80.1089 6.54388 79.4689 6.57588 78.8289 6.57588C78.2209 6.57588 77.5969 6.54388 76.9569 6.47988C76.3489 6.41588 75.7249 6.31988 75.0849 6.19188C75.0209 5.64788 74.9729 5.15188 74.9409 4.70388C74.9089 4.22388 74.8929 3.75988 74.8929 3.31188C74.8929 2.89588 74.9089 2.44788 74.9409 1.96788C74.9729 1.48788 75.0209 0.959881 75.0849 0.383881C75.7249 0.223881 76.3649 0.127881 77.0049 0.0958815C77.6769 0.0318804 78.3329 -0.000120163 78.9729 -0.000120163C79.5809 -0.000120163 80.1889 0.0318804 80.7969 0.0958815C81.4369 0.127881 82.0769 0.223881 82.7169 0.383881ZM82.7169 32.4479H75.0369V9.07188H82.7169V32.4479ZM95.7114 32.4479H88.0314V9.07188H95.3274L95.7114 13.3439H95.8554C96.3034 11.9039 97.1034 10.7999 98.2554 10.0319C99.4074 9.23188 101.007 8.83188 103.055 8.83188C105.839 8.83188 107.887 9.61588 109.199 11.1839C110.543 12.7519 111.215 15.4719 111.215 19.3439V32.4479H103.535L103.487 20.8319C103.487 19.0399 103.215 17.7599 102.671 16.9919C102.127 16.2239 101.103 15.8399 99.5994 15.8399C98.1914 15.8399 97.1994 16.1919 96.6234 16.8959C96.0474 17.5679 95.7434 18.7359 95.7114 20.3999V32.4479Z" fill="#4FFFB0"/>
<path d="M124.548 25.6319C124.612 26.3359 124.66 26.9439 124.692 27.4559C124.724 27.9359 124.74 28.4479 124.74 28.9919C124.74 29.5039 124.724 30.0319 124.692 30.5759C124.66 31.0879 124.612 31.6799 124.548 32.3519C123.748 32.4799 122.948 32.5919 122.148 32.6879C121.348 32.7839 120.548 32.8319 119.748 32.8319C118.98 32.8319 118.212 32.7839 117.444 32.6879C116.676 32.5919 115.892 32.4799 115.092 32.3519C114.996 31.7119 114.932 31.1359 114.9 30.6239C114.868 30.0799 114.852 29.5519 114.852 29.0399C114.852 28.5599 114.868 28.0479 114.9 27.5039C114.932 26.9599 114.996 26.3359 115.092 25.6319C116.692 25.3439 118.276 25.1999 119.844 25.1999C121.412 25.1999 122.98 25.3439 124.548 25.6319Z" fill="#A78BFA"/>
</svg>
