<svg width="150" height="150" viewBox="0 0 150 150" fill="none" xmlns="http://www.w3.org/2000/svg">
<rect width="150" height="150" rx="29" fill="#0D0F14"/>
<path fill-rule="evenodd" clip-rule="evenodd" d="M46.8725 17.8185C45.2938 19.6387 43.0141 23.8766 42.1707 26.5604C41.0698 30.0636 41.0057 35.8381 42.025 39.7318C43.4041 45.0022 47.2234 50.4712 52.079 54.1277L53.5071 55.2034L47.2536 55.2225L41 55.2416L41.2224 80.9733C41.4729 109.989 41.4709 109.967 44.4899 116.062C48.3165 123.787 56.6192 130.409 65.7482 133.016C70.3329 134.325 79.2721 134.329 84.1686 133.023C96.6451 129.695 105.544 120.97 108.272 109.391C108.938 106.563 109 103.616 109 74.9726C109 45.7162 108.951 43.4868 108.25 41.2236C106.094 34.2555 101.703 29.5843 95.6156 27.7821C92.7483 26.9331 87.3969 26.9957 84.4521 27.9123C83.1419 28.3203 78.4891 30.7597 74.1129 33.3332C69.7367 35.9068 65.5319 38.2273 64.7693 38.4906C61.6625 39.5613 58.1167 38.6541 56.9558 36.491C56.1618 35.0118 56.7 31.5705 58.202 28.5229C59.2306 26.4363 60.6163 24.6931 63.7815 21.5036C66.0975 19.17 67.9924 17.2022 67.9924 17.1302C67.9924 17.0586 63.4004 17 57.7874 17C48.0696 17 47.5486 17.0391 46.8725 17.8185ZM92.4745 45.833C93.8684 46.8435 94.5714 49.1954 94.4294 52.3751L94.3107 55.0382L82.0696 55.1305C71.0119 55.2143 69.9073 55.1631 70.6446 54.6009C72.2808 53.3535 85.3739 45.7129 86.762 45.1955C88.5056 44.5453 91.0974 44.8346 92.4745 45.833ZM67.9924 78.4307V86.5672H62.2799H56.5674V78.4307V70.2942H62.2799H67.9924V78.4307ZM94.4213 78.5324L94.5319 86.5672H88.6068H82.6817V78.4197V70.2718L88.4962 70.3849L94.3107 70.4976L94.4213 78.5324ZM93.4918 101.615C93.9675 102.383 92.7687 106.928 91.6107 108.749C90.2099 110.951 87.5944 112.87 84.1853 114.196C80.7468 115.534 72.0103 115.888 68.0169 114.851C63.2563 113.615 60.0638 111.6 58.4101 108.787C57.3467 106.978 56.3426 102.791 56.7306 101.783C56.9138 101.306 59.9125 101.213 75.0963 101.213C86.6229 101.213 93.3335 101.36 93.4918 101.615Z" fill="#4FFFB0"/>
</svg>
